<svg xmlns="http://www.w3.org/2000/svg" viewBox="0 0 1200 900" width="1200" height="900"><defs>
      <radialGradient id="vgrad" cx="50%" cy="35%" r="75%">
        <stop offset="0%" stop-color="#111620" stop-opacity="0"/>
        <stop offset="100%" stop-color="#0B0E12" stop-opacity="0.9"/>
      </radialGradient>
      <linearGradient id="brassGrad" x1="0%" y1="0%" x2="100%" y2="100%">
        <stop offset="0%" stop-color="#E4BE7A"/>
        <stop offset="100%" stop-color="#C89B4A"/>
      </linearGradient>
      <linearGradient id="tealGrad" x1="0%" y1="0%" x2="100%" y2="100%">
        <stop offset="0%" stop-color="#6FCFC4"/>
        <stop offset="100%" stop-color="#3FA9A0"/>
      </linearGradient>
    </defs><rect width="1200" height="900" fill="#0B0E12"/><line x1="0" y1="0" x2="0" y2="900" stroke="#1C232E" stroke-width="1"/><line x1="40" y1="0" x2="40" y2="900" stroke="#1C232E" stroke-width="1"/><line x1="80" y1="0" x2="80" y2="900" stroke="#1C232E" stroke-width="1"/><line x1="120" y1="0" x2="120" y2="900" stroke="#1C232E" stroke-width="1"/><line x1="160" y1="0" x2="160" y2="900" stroke="#1C232E" stroke-width="1"/><line x1="200" y1="0" x2="200" y2="900" stroke="#1C232E" stroke-width="1"/><line x1="240" y1="0" x2="240" y2="900" stroke="#1C232E" stroke-width="1"/><line x1="280" y1="0" x2="280" y2="900" stroke="#1C232E" stroke-width="1"/><line x1="320" y1="0" x2="320" y2="900" stroke="#1C232E" stroke-width="1"/><line x1="360" y1="0" x2="360" y2="900" stroke="#1C232E" stroke-width="1"/><line x1="400" y1="0" x2="400" y2="900" stroke="#1C232E" stroke-width="1"/><line x1="440" y1="0" x2="440" y2="900" stroke="#1C232E" stroke-width="1"/><line x1="480" y1="0" x2="480" y2="900" stroke="#1C232E" stroke-width="1"/><line x1="520" y1="0" x2="520" y2="900" stroke="#1C232E" stroke-width="1"/><line x1="560" y1="0" x2="560" y2="900" stroke="#1C232E" stroke-width="1"/><line x1="600" y1="0" x2="600" y2="900" stroke="#1C232E" stroke-width="1"/><line x1="640" y1="0" x2="640" y2="900" stroke="#1C232E" stroke-width="1"/><line x1="680" y1="0" x2="680" y2="900" stroke="#1C232E" stroke-width="1"/><line x1="720" y1="0" x2="720" y2="900" stroke="#1C232E" stroke-width="1"/><line x1="760" y1="0" x2="760" y2="900" stroke="#1C232E" stroke-width="1"/><line x1="800" y1="0" x2="800" y2="900" stroke="#1C232E" stroke-width="1"/><line x1="840" y1="0" x2="840" y2="900" stroke="#1C232E" stroke-width="1"/><line x1="880" y1="0" x2="880" y2="900" stroke="#1C232E" stroke-width="1"/><line x1="920" y1="0" x2="920" y2="900" stroke="#1C232E" stroke-width="1"/><line x1="960" y1="0" x2="960" y2="900" stroke="#1C232E" stroke-width="1"/><line x1="1000" y1="0" x2="1000" y2="900" stroke="#1C232E" stroke-width="1"/><line x1="1040" y1="0" x2="1040" y2="900" stroke="#1C232E" stroke-width="1"/><line x1="1080" y1="0" x2="1080" y2="900" stroke="#1C232E" stroke-width="1"/><line x1="1120" y1="0" x2="1120" y2="900" stroke="#1C232E" stroke-width="1"/><line x1="1160" y1="0" x2="1160" y2="900" stroke="#1C232E" stroke-width="1"/><line x1="0" y1="0" x2="1200" y2="0" stroke="#1C232E" stroke-width="1"/><line x1="0" y1="40" x2="1200" y2="40" stroke="#1C232E" stroke-width="1"/><line x1="0" y1="80" x2="1200" y2="80" stroke="#1C232E" stroke-width="1"/><line x1="0" y1="120" x2="1200" y2="120" stroke="#1C232E" stroke-width="1"/><line x1="0" y1="160" x2="1200" y2="160" stroke="#1C232E" stroke-width="1"/><line x1="0" y1="200" x2="1200" y2="200" stroke="#1C232E" stroke-width="1"/><line x1="0" y1="240" x2="1200" y2="240" stroke="#1C232E" stroke-width="1"/><line x1="0" y1="280" x2="1200" y2="280" stroke="#1C232E" stroke-width="1"/><line x1="0" y1="320" x2="1200" y2="320" stroke="#1C232E" stroke-width="1"/><line x1="0" y1="360" x2="1200" y2="360" stroke="#1C232E" stroke-width="1"/><line x1="0" y1="400" x2="1200" y2="400" stroke="#1C232E" stroke-width="1"/><line x1="0" y1="440" x2="1200" y2="440" stroke="#1C232E" stroke-width="1"/><line x1="0" y1="480" x2="1200" y2="480" stroke="#1C232E" stroke-width="1"/><line x1="0" y1="520" x2="1200" y2="520" stroke="#1C232E" stroke-width="1"/><line x1="0" y1="560" x2="1200" y2="560" stroke="#1C232E" stroke-width="1"/><line x1="0" y1="600" x2="1200" y2="600" stroke="#1C232E" stroke-width="1"/><line x1="0" y1="640" x2="1200" y2="640" stroke="#1C232E" stroke-width="1"/><line x1="0" y1="680" x2="1200" y2="680" stroke="#1C232E" stroke-width="1"/><line x1="0" y1="720" x2="1200" y2="720" stroke="#1C232E" stroke-width="1"/><line x1="0" y1="760" x2="1200" y2="760" stroke="#1C232E" stroke-width="1"/><line x1="0" y1="800" x2="1200" y2="800" stroke="#1C232E" stroke-width="1"/><line x1="0" y1="840" x2="1200" y2="840" stroke="#1C232E" stroke-width="1"/><line x1="0" y1="880" x2="1200" y2="880" stroke="#1C232E" stroke-width="1"/><rect width="1200" height="900" fill="url(#vgrad)"/>
    <path d="M 36 58 L 36 36 L 58 36" stroke="#3FA9A0" stroke-width="2" fill="none"/>
    <path d="M 1142 36 L 1164 36 L 1164 58" stroke="#3FA9A0" stroke-width="2" fill="none"/>
    <path d="M 36 842 L 36 864 L 58 864" stroke="#3FA9A0" stroke-width="2" fill="none"/>
    <path d="M 1142 864 L 1164 864 L 1164 842" stroke="#3FA9A0" stroke-width="2" fill="none"/>
    <ellipse cx="600.0" cy="284.0" rx="120" ry="30" fill="none" stroke="url(#tealGrad)" stroke-width="3"/><line x1="480.0" y1="284.0" x2="480.0" y2="544.0" stroke="url(#tealGrad)" stroke-width="3"/><line x1="720.0" y1="284.0" x2="720.0" y2="544.0" stroke="url(#tealGrad)" stroke-width="3"/><ellipse cx="600.0" cy="544.0" rx="120" ry="30" fill="none" stroke="url(#tealGrad)" stroke-width="3"/><ellipse cx="600.0" cy="414.0" rx="120" ry="30" fill="none" stroke="#AEB8C4" stroke-width="1.5" opacity="0.5"/></svg>